<svg xmlns="http://www.w3.org/2000/svg" width="375.179" height="505.617" viewBox="0 0 375.179 505.617">
  <g id="Raggruppa_288" data-name="Raggruppa 288" transform="translate(0 0.236)">
    <path id="Tracciato_17" data-name="Tracciato 17" d="M0,0H252V113.635S207.529,117,115.355,100.523-22.488,52.357-22.488,52.357Z" transform="translate(123 391.462)" fill="#f2055c"/>
    <path id="Tracciato_16" data-name="Tracciato 16" d="M0-37.642a165.936,165.936,0,0,0,14.423,8.209c27.607,14.3,94.6,42.392,187.139,37.777C325.114,2.182,345,8.343,345,8.343V133.094H0Z" transform="translate(0 37.406)" fill="#f2055c"/>
    <path id="Tracciato_15" data-name="Tracciato 15" d="M0,88.795s59.653,1.955,157.61-35.506C208.094,33.983,268.238,5.418,304.7-24.1c.039-.032,70.475.034,70.475.034l-.179,469s-21.665-20.358-115.415-20.358S0,465.4,0,465.4Z" transform="translate(0 24.105)" fill="#4e5169"/>
  </g>
</svg>
