<svg xmlns="http://www.w3.org/2000/svg" width="1920" height="3950" viewBox="0 0 1920 3950">
  <g id="Raggruppa_44" data-name="Raggruppa 44" transform="translate(-0.337 -2171.711)">
    <path id="Tracciato_12" data-name="Tracciato 12" d="M287.435,2337.711s-16.452,38.138,376.727,95.765,830.151,118.494,830.151,118.494l-264.869,47.842H287.435Z" transform="translate(-287 -166)" fill="#1a94c4"/>
    <path id="Tracciato_13" data-name="Tracciato 13" d="M991.478,4989.5s172.123,84.1,647.737,114.043,778.76-17.554,778.76-17.554V4831.548l-1426.5,42.24Z" transform="translate(-497.638 1008.265)" fill="#f2055c"/>
    <path id="Tracciato_14" data-name="Tracciato 14" d="M2221.337,2337.711s-104.628,38.913-368.762,104.08-505.389,50.442-505.389,50.442l363.734,139.587h510.418Z" transform="translate(-301 -166)" fill="#1a94c4"/>
    <path id="Tracciato_11" data-name="Tracciato 11" d="M301,2508.86v3631.1s521.648-10.155,856.567-91.3S2221,6113.55,2221,6113.55V2367.109s-200.518,168.408-506.82,99.8c-194.087-21.83-426.28-77.135-624.52-72.8C609.66,2404.594,301,2508.86,301,2508.86Z" transform="translate(-300.663 -96.604)" fill="#4e5169"/>
  </g>
</svg>
