<svg xmlns="http://www.w3.org/2000/svg" width="375" height="1800" viewBox="0 0 375 1800">
  <g id="backgroundN1-small" transform="translate(0 -2167.52)">
    <path id="Tracciato_13" data-name="Tracciato 13" d="M991.478,4882.125s35.212,26.929,132.51,36.518,159.314-5.621,159.314-5.621v-81.473l-291.825,13.525Z" transform="translate(-908.302 -954.294)" fill="#f2055c"/>
    <path id="Tracciato_12" data-name="Tracciato 12" d="M287.353,2337.711s-2.784,12.475,63.761,31.324,140.5,38.759,140.5,38.759l-44.829,15.649H287.353Z" transform="translate(-287.337 -148.198)" fill="#1a94c4"/>
    <path id="Tracciato_14" data-name="Tracciato 14" d="M1612.257,2337.711s-31.727,19.7-111.821,52.7-153.251,25.542-153.251,25.542l110.3,70.682h154.776Z" transform="translate(-1237.257 -170.192)" fill="#1a94c4"/>
    <path id="Tracciato_11" data-name="Tracciato 11" d="M300.816,2400.545,301,4095.815s90.457-19.56,178.6-33.485c79.327-12.533,174.779,4.444,193.339,8.015,1.77.34,2.851.565,2.851.565l.032-1708.856s-27.448,13.192-87.724,16.371c-66.378-2.3-93.242-4.166-131.825-2.181C362.844,2381.053,300.816,2400.545,300.816,2400.545Z" transform="translate(-300.816 -141.604)" fill="#4e5169"/>
  </g>
</svg>
