<svg xmlns="http://www.w3.org/2000/svg" width="375.179" height="463.689" viewBox="0 0 375.179 463.689">
  <g id="Raggruppa_288" data-name="Raggruppa 288" transform="translate(0 0.236)">
    <path id="Tracciato_17" data-name="Tracciato 17" d="M0,0H252V113.635S207.529,117,115.355,100.523-22.488,52.357-22.488,52.357Z" transform="translate(123 349.534)" fill="#f2055c"/>
    <path id="Tracciato_16" data-name="Tracciato 16" d="M0-37.642a165.936,165.936,0,0,0,14.423,8.209c27.607,14.3,94.6,42.392,187.139,37.777C325.114,2.182,345,8.343,345,8.343V133.094H0Z" transform="translate(0 37.406)" fill="#f2055c"/>
    <path id="Tracciato_15" data-name="Tracciato 15" d="M0,79.124S59.653,80.912,157.61,46.66C208.094,29.007,268.238,2.889,304.7-24.1c.039-.029,70.475.031,70.475.031L375,404.761s-21.665-18.614-115.415-18.614S0,423.467,0,423.467Z" transform="translate(0 24.105)" fill="#4e5169"/>
  </g>
</svg>
