<svg id="Raggruppa_290" data-name="Raggruppa 290" xmlns="http://www.w3.org/2000/svg" width="1920" height="1097.855" viewBox="0 0 1920 1097.855">
  <path id="Tracciato_9" data-name="Tracciato 9" d="M301,409.712s128.1,50.9,410.894,50.9,720.295-50.9,720.295-50.9V588.121H301Z" transform="translate(-301 -178.712)" fill="#1a94c4"/>
  <path id="Tracciato_10" data-name="Tracciato 10" d="M2221,1263.855s-274.654-9.049-553.793-26.43-562.762-102.977-562.762-102.977v-65.557H2221Z" transform="translate(-301 -166)" fill="#1a94c4"/>
  <path id="Tracciato_8" data-name="Tracciato 8" d="M301,612.242V1263.33s292.04,15.234,773.371-52.472S2221,1263.33,2221,1263.33V226.968l-340.829-.145S1753.478,255.338,1568.144,334.7c-199.908,85.6-160.7,131.822-522.788,193.517C473.3,626.17,301,612.242,301,612.242Z" transform="translate(-301 -226.824)" fill="#f2055c"/>
</svg>
